<svg width="40" height="40" viewBox="0 0 40 40" fill="none" xmlns="http://www.w3.org/2000/svg">
<rect width="40" height="40" rx="20" fill="#EBF2FF"/>
<path d="M21.4314 29.3275C23.7316 26.5733 27.9958 21.0394 27.9958 17.8649C27.9958 13.518 24.416 9.99414 20.0001 9.99414C15.5842 9.99414 12.0045 13.518 12.0045 17.8649C12.0045 21.0394 16.2687 26.5733 18.5689 29.3275C19.3233 30.2308 20.677 30.2308 21.4314 29.3275Z" fill="#CCE4FF"/>
<path d="M20.0001 15.1629C20.9424 14.2206 22.4702 14.2206 23.4125 15.1629C24.3548 16.1052 24.3548 17.633 23.4125 18.5753L20.0001 21.9877L16.5878 18.5753C15.6455 17.633 15.6455 16.1052 16.5878 15.1629C17.5301 14.2206 19.0578 14.2206 20.0001 15.1629Z" fill="#CCE4FF"/>
<path d="M21.4314 29.3275C23.7316 26.5733 27.9958 21.0394 27.9958 17.8649C27.9958 13.518 24.416 9.99414 20.0001 9.99414C15.5842 9.99414 12.0045 13.518 12.0045 17.8649C12.0045 21.0394 16.2687 26.5733 18.5689 29.3275C19.3233 30.2308 20.677 30.2308 21.4314 29.3275Z" stroke="#0087FA" stroke-width="1.2" stroke-linejoin="round"/>
<path d="M20.0001 15.1629C20.9424 14.2206 22.4702 14.2206 23.4125 15.1629C24.3548 16.1052 24.3548 17.633 23.4125 18.5753L20.0001 21.9877L16.5878 18.5753C15.6455 17.633 15.6455 16.1052 16.5878 15.1629C17.5301 14.2206 19.0578 14.2206 20.0001 15.1629Z" stroke="#0087FA" stroke-width="1.2" stroke-linejoin="round"/>
</svg>
