<svg width="40" height="40" viewBox="0 0 40 40" fill="none" xmlns="http://www.w3.org/2000/svg">
<rect width="40" height="40" rx="20" fill="#EBF2FF"/>
<path d="M11.6669 18.3327C11.6669 15.19 11.6669 13.6186 12.6432 12.6423C13.6196 11.666 15.1909 11.666 18.3336 11.666H21.6669C24.8096 11.666 26.381 11.666 27.3573 12.6423C28.3336 13.6186 28.3336 15.19 28.3336 18.3327V21.666C28.3336 24.8087 28.3336 26.3801 27.3573 27.3564C26.381 28.3327 24.8096 28.3327 21.6669 28.3327H18.3336C15.1909 28.3327 13.6196 28.3327 12.6432 27.3564C11.6669 26.3801 11.6669 24.8087 11.6669 21.666V18.3327Z" fill="#CCE4FF"/>
<path d="M16.6669 17.4993V11.666H23.3336V17.4993C23.3336 18.9538 23.3336 19.681 22.8729 19.9114C22.4123 20.1417 21.8305 19.7054 20.6669 18.8327L20.0003 18.3327L19.3336 18.8327C18.17 19.7054 17.5882 20.1417 17.1276 19.9114C16.6669 19.681 16.6669 18.9538 16.6669 17.4993Z" fill="#CCE4FF"/>
<path d="M11.6669 18.3327C11.6669 15.19 11.6669 13.6186 12.6432 12.6423C13.6196 11.666 15.1909 11.666 18.3336 11.666H21.6669C24.8096 11.666 26.381 11.666 27.3573 12.6423C28.3336 13.6186 28.3336 15.19 28.3336 18.3327V21.666C28.3336 24.8087 28.3336 26.3801 27.3573 27.3564C26.381 28.3327 24.8096 28.3327 21.6669 28.3327H18.3336C15.1909 28.3327 13.6196 28.3327 12.6432 27.3564C11.6669 26.3801 11.6669 24.8087 11.6669 21.666V18.3327Z" stroke="#0087FA" stroke-width="1.2" stroke-linejoin="round"/>
<path d="M16.6669 17.4993V11.666H23.3336V17.4993C23.3336 18.9538 23.3336 19.681 22.8729 19.9114C22.4123 20.1417 21.8305 19.7054 20.6669 18.8327L20.0003 18.3327L19.3336 18.8327C18.17 19.7054 17.5882 20.1417 17.1276 19.9114C16.6669 19.681 16.6669 18.9538 16.6669 17.4993Z" stroke="#0087FA" stroke-width="1.2" stroke-linejoin="round"/>
</svg>
