<svg width="40" height="40" viewBox="0 0 40 40" fill="none" xmlns="http://www.w3.org/2000/svg">
<rect width="40" height="40" rx="20" fill="#EBF2FF"/>
<path d="M12.3249 24.3826L11.6666 28.3323L15.6163 27.6741C16.1355 27.5875 16.3951 27.5443 16.6255 27.4263L16.6314 27.4232C16.8613 27.3044 17.0474 27.1183 17.4195 26.7461L27.0833 17.0823C28.2339 15.9318 28.2339 14.0663 27.0833 12.9157C25.9327 11.7651 24.0672 11.7651 22.9166 12.9157L13.2529 22.5794C12.8807 22.9516 12.6946 23.1377 12.5757 23.3676L12.5727 23.3735C12.4547 23.6039 12.4114 23.8635 12.3249 24.3826Z" fill="#CCE4FF"/>
<path d="M11.6666 28.3323L11.0748 28.2337C11.0429 28.4248 11.1053 28.6196 11.2424 28.7566C11.3794 28.8936 11.5741 28.956 11.7653 28.9242L11.6666 28.3323ZM12.3249 24.3826L11.7331 24.284H11.7331L12.3249 24.3826ZM13.2529 22.5794L12.8286 22.1552L13.2529 22.5794ZM22.9166 12.9157L23.3409 13.3399V13.3399L22.9166 12.9157ZM15.6163 27.6741L15.715 28.2659L15.6163 27.6741ZM17.4195 26.7461L16.9953 26.3218L16.9953 26.3218L17.4195 26.7461ZM16.6255 27.4263L16.8989 27.9603L16.9 27.9598L16.6255 27.4263ZM16.6314 27.4232L16.9059 27.9568L16.907 27.9562L16.6314 27.4232ZM12.5727 23.3735L12.0392 23.099L12.0386 23.1L12.5727 23.3735ZM12.5757 23.3676L12.0428 23.092L12.0422 23.093L12.5757 23.3676ZM11.6666 28.3323L12.2585 28.431L12.9167 24.4813L12.3249 24.3826L11.7331 24.284L11.0748 28.2337L11.6666 28.3323ZM13.2529 22.5794L13.6771 23.0037L23.3409 13.3399L22.9166 12.9157L22.4924 12.4914L12.8286 22.1552L13.2529 22.5794ZM11.6666 28.3323L11.7653 28.9242L15.715 28.2659L15.6163 27.6741L15.5177 27.0822L11.568 27.7405L11.6666 28.3323ZM17.4195 26.7461L17.8438 27.1704L27.5076 17.5066L27.0833 17.0823L26.659 16.6581L16.9953 26.3218L17.4195 26.7461ZM15.6163 27.6741L15.715 28.2659C16.1977 28.1854 16.5665 28.1306 16.8989 27.9603L16.6255 27.4263L16.352 26.8922C16.2236 26.958 16.0733 26.9896 15.5177 27.0822L15.6163 27.6741ZM17.4195 26.7461L16.9953 26.3218C16.597 26.7201 16.4838 26.8241 16.3558 26.8903L16.6314 27.4232L16.907 27.9562C17.2387 27.7846 17.4977 27.5164 17.8438 27.1704L17.4195 26.7461ZM16.6255 27.4263L16.9 27.9598L16.9059 27.9568L16.6314 27.4232L16.3569 26.8897L16.3509 26.8928L16.6255 27.4263ZM27.0833 12.9157L26.659 13.3399C27.5753 14.2562 27.5753 15.7418 26.659 16.6581L27.0833 17.0823L27.5076 17.5066C28.8925 16.1217 28.8925 13.8763 27.5076 12.4914L27.0833 12.9157ZM22.9166 12.9157L23.3409 13.3399C24.2572 12.4237 25.7427 12.4237 26.659 13.3399L27.0833 12.9157L27.5076 12.4914C26.1226 11.1065 23.8773 11.1065 22.4924 12.4914L22.9166 12.9157ZM12.3249 24.3826L12.9167 24.4813C13.0093 23.9257 13.041 23.7753 13.1067 23.647L12.5727 23.3735L12.0386 23.1C11.8684 23.4324 11.8135 23.8012 11.7331 24.284L12.3249 24.3826ZM13.2529 22.5794L12.8286 22.1552C12.4825 22.5012 12.2143 22.7602 12.0428 23.092L12.5757 23.3676L13.1087 23.6432C13.1749 23.5151 13.2789 23.402 13.6771 23.0037L13.2529 22.5794ZM12.5727 23.3735L13.1062 23.6481L13.1092 23.6421L12.5757 23.3676L12.0422 23.093L12.0392 23.099L12.5727 23.3735ZM25 19.1657L25.4242 18.7414L21.2576 14.5747L20.8333 14.999L20.409 15.4233L24.5757 19.5899L25 19.1657Z" fill="#0087FA"/>
</svg>
