<svg width="272" height="88" viewBox="0 0 272 88" fill="none" xmlns="http://www.w3.org/2000/svg">
<path d="M41.5085 69.3693C41.5085 70.213 41.3061 71.009 40.9013 71.7573C40.4965 72.5055 39.8488 73.1184 38.9582 73.596C38.0676 74.0577 36.926 74.2885 35.5335 74.2885H32.473V81.0226H29.7041V64.4262H35.5335C36.8289 64.4262 37.9219 64.649 38.8125 65.0948C39.7192 65.5246 40.3912 66.1137 40.8284 66.8619C41.2818 67.6101 41.5085 68.4459 41.5085 69.3693ZM35.5335 72.0677C36.586 72.0677 37.3713 71.8369 37.8895 71.3752C38.4076 70.8976 38.6667 70.2289 38.6667 69.3693C38.6667 67.5544 37.6223 66.647 35.5335 66.647H32.473V72.0677H35.5335Z" fill="#003669"/>
<path d="M49.9544 81.2375C48.6914 81.2375 47.5498 80.9589 46.5297 80.4017C45.5096 79.8286 44.708 79.0326 44.1251 78.0138C43.5422 76.979 43.2507 75.785 43.2507 74.4318C43.2507 73.0945 43.5503 71.9085 44.1494 70.8737C44.7485 69.8389 45.5662 69.0429 46.6026 68.4857C47.6389 67.9285 48.7967 67.6499 50.0759 67.6499C51.3551 67.6499 52.5129 67.9285 53.5492 68.4857C54.5855 69.0429 55.4033 69.8389 56.0024 70.8737C56.6015 71.9085 56.9011 73.0945 56.9011 74.4318C56.9011 75.7691 56.5934 76.9551 55.9781 77.9899C55.3628 79.0247 54.5208 79.8286 53.4521 80.4017C52.3995 80.9589 51.2337 81.2375 49.9544 81.2375ZM49.9544 78.8734C50.6669 78.8734 51.3308 78.7063 51.9461 78.372C52.5777 78.0376 53.0877 77.5362 53.4763 76.8675C53.865 76.1989 54.0593 75.387 54.0593 74.4318C54.0593 73.4766 53.8731 72.6726 53.5006 72.0199C53.1282 71.3513 52.6343 70.8498 52.019 70.5155C51.4037 70.1812 50.7398 70.014 50.0273 70.014C49.3148 70.014 48.6509 70.1812 48.0356 70.5155C47.4365 70.8498 46.9588 71.3513 46.6026 72.0199C46.2463 72.6726 46.0682 73.4766 46.0682 74.4318C46.0682 75.8487 46.4326 76.9471 47.1612 77.7272C47.9061 78.4914 48.8372 78.8734 49.9544 78.8734Z" fill="#003669"/>
<path d="M77.6122 67.8648L73.4588 81.0226H70.5441L67.848 71.3035L65.1519 81.0226H62.2373L58.0596 67.8648H60.8771L63.6703 78.4436L66.5121 67.8648H69.4025L72.1229 78.3958L74.8918 67.8648H77.6122Z" fill="#003669"/>
<path d="M91.9474 74.1214C91.9474 74.6149 91.915 75.0606 91.8502 75.4586H81.6246C81.7056 76.5093 82.1023 77.3531 82.8148 77.9899C83.5272 78.6267 84.4016 78.9451 85.438 78.9451C86.9277 78.9451 87.9802 78.3322 88.5955 77.1063H91.5831C91.1782 78.3162 90.4415 79.3112 89.3728 80.0913C88.3203 80.8555 87.0086 81.2375 85.438 81.2375C84.1587 81.2375 83.0091 80.9589 81.9889 80.4017C80.985 79.8286 80.1915 79.0326 79.6086 78.0138C79.0419 76.979 78.7585 75.785 78.7585 74.4318C78.7585 73.0786 79.0338 71.8926 79.5843 70.8737C80.1511 69.8389 80.9364 69.0429 81.9403 68.4857C82.9605 67.9285 84.1264 67.6499 85.438 67.6499C86.701 67.6499 87.8264 67.9206 88.8141 68.4618C89.8019 69.0031 90.571 69.7673 91.1216 70.7543C91.6721 71.7254 91.9474 72.8478 91.9474 74.1214ZM89.057 73.2617C89.0408 72.2587 88.6765 71.4548 87.964 70.8498C87.2515 70.2449 86.369 69.9424 85.3165 69.9424C84.3611 69.9424 83.5434 70.2449 82.8633 70.8498C82.1832 71.4389 81.7784 72.2428 81.6489 73.2617H89.057Z" fill="#003669"/>
<path d="M97.4413 69.7752C97.8461 69.1066 98.3804 68.5892 99.0443 68.223C99.7244 67.841 100.526 67.6499 101.449 67.6499V70.4677H100.745C99.6596 70.4677 98.8338 70.7384 98.2671 71.2797C97.7165 71.8209 97.4413 72.7602 97.4413 74.0975V81.0226H94.6723V67.8648H97.4413V69.7752Z" fill="#003669"/>
<path d="M116.26 74.1214C116.26 74.6149 116.228 75.0606 116.163 75.4586H105.937C106.018 76.5093 106.415 77.3531 107.127 77.9899C107.84 78.6267 108.714 78.9451 109.751 78.9451C111.24 78.9451 112.293 78.3322 112.908 77.1063H115.896C115.491 78.3162 114.754 79.3112 113.685 80.0913C112.633 80.8555 111.321 81.2375 109.751 81.2375C108.471 81.2375 107.322 80.9589 106.302 80.4017C105.298 79.8286 104.504 79.0326 103.921 78.0138C103.355 76.979 103.071 75.785 103.071 74.4318C103.071 73.0786 103.346 71.8926 103.897 70.8737C104.464 69.8389 105.249 69.0429 106.253 68.4857C107.273 67.9285 108.439 67.6499 109.751 67.6499C111.014 67.6499 112.139 67.9206 113.127 68.4618C114.115 69.0031 114.884 69.7673 115.434 70.7543C115.985 71.7254 116.26 72.8478 116.26 74.1214ZM113.37 73.2617C113.353 72.2587 112.989 71.4548 112.277 70.8498C111.564 70.2449 110.682 69.9424 109.629 69.9424C108.674 69.9424 107.856 70.2449 107.176 70.8498C106.496 71.4389 106.091 72.2428 105.962 73.2617H113.37Z" fill="#003669"/>
<path d="M118.062 74.384C118.062 73.0627 118.337 71.8926 118.888 70.8737C119.455 69.8548 120.216 69.0668 121.171 68.5096C122.143 67.9365 123.219 67.6499 124.401 67.6499C125.276 67.6499 126.134 67.841 126.976 68.223C127.834 68.5892 128.514 69.0827 129.016 69.7036V63.3516H131.81V81.0226H129.016V79.0406C128.563 79.6774 127.931 80.2027 127.122 80.6167C126.328 81.0306 125.413 81.2375 124.377 81.2375C123.211 81.2375 122.143 80.951 121.171 80.3779C120.216 79.7888 119.455 78.9769 118.888 77.9421C118.337 76.8914 118.062 75.7054 118.062 74.384ZM129.016 74.4318C129.016 73.5244 128.822 72.7363 128.433 72.0677C128.061 71.3991 127.567 70.8896 126.952 70.5394C126.336 70.1891 125.673 70.014 124.96 70.014C124.248 70.014 123.584 70.1891 122.968 70.5394C122.353 70.8737 121.851 71.3752 121.462 72.0438C121.09 72.6965 120.904 73.4766 120.904 74.384C120.904 75.2915 121.09 76.0875 121.462 76.772C121.851 77.4566 122.353 77.9819 122.968 78.3481C123.6 78.6983 124.264 78.8734 124.96 78.8734C125.673 78.8734 126.336 78.6983 126.952 78.3481C127.567 77.9978 128.061 77.4884 128.433 76.8198C128.822 76.1352 129.016 75.3392 129.016 74.4318Z" fill="#003669"/>
<path d="M144.525 69.823C144.994 69.1862 145.634 68.6688 146.444 68.2708C147.269 67.8569 148.184 67.6499 149.188 67.6499C150.37 67.6499 151.439 67.9285 152.394 68.4857C153.35 69.0429 154.103 69.8389 154.653 70.8737C155.204 71.8926 155.479 73.0627 155.479 74.384C155.479 75.7054 155.204 76.8914 154.653 77.9421C154.103 78.9769 153.342 79.7888 152.37 80.3779C151.415 80.951 150.354 81.2375 149.188 81.2375C148.152 81.2375 147.229 81.0385 146.419 80.6405C145.626 80.2425 144.994 79.7331 144.525 79.1122V81.0226H141.756V63.3516H144.525V69.823ZM152.662 74.384C152.662 73.4766 152.467 72.6965 152.079 72.0438C151.706 71.3752 151.204 70.8737 150.573 70.5394C149.957 70.1891 149.294 70.014 148.581 70.014C147.885 70.014 147.221 70.1891 146.589 70.5394C145.974 70.8896 145.472 71.3991 145.083 72.0677C144.711 72.7363 144.525 73.5244 144.525 74.4318C144.525 75.3392 144.711 76.1352 145.083 76.8198C145.472 77.4884 145.974 77.9978 146.589 78.3481C147.221 78.6983 147.885 78.8734 148.581 78.8734C149.294 78.8734 149.957 78.6983 150.573 78.3481C151.204 77.9819 151.706 77.4566 152.079 76.772C152.467 76.0875 152.662 75.2915 152.662 74.384Z" fill="#003669"/>
<path d="M170.265 67.8648L162.055 87.2075H159.189L161.909 80.8077L156.639 67.8648H159.723L163.488 77.8944L167.399 67.8648H170.265Z" fill="#003669"/>
<path d="M185.036 75.8183C185.434 75.3744 185.633 74.829 185.633 74.1817V63.3789H188.719V74.1817C188.719 74.9768 188.582 75.7212 188.308 76.4148C188.035 77.1085 187.665 77.7144 187.201 78.2322C186.737 78.7499 186.193 79.1617 185.571 79.4667C184.949 79.7721 184.281 79.9244 183.568 79.9244H179.438V76.6098H183.568C184.149 76.6098 184.638 76.2626 185.036 75.8183Z" fill="#221F1F"/>
<path d="M213.461 66.6662H207.282V63.3516H222.75V66.6662H216.547V79.9247H213.461V66.6662Z" fill="#221F1F"/>
<path d="M232.021 66.6662H225.842V63.3516H241.31V66.6662H235.107V79.9247H232.021V66.6662Z" fill="#221F1F"/>
<path d="M191.813 65.0366V65.009C191.813 64.1087 192.497 63.3789 193.341 63.3789H202.643C203.487 63.3789 204.171 64.1087 204.171 65.009V65.0366C204.171 65.937 203.487 66.6667 202.643 66.6667H193.341C192.497 66.6667 191.813 65.937 191.813 65.0366ZM193.341 79.8984H202.643C203.487 79.8984 204.171 79.1686 204.171 78.2683V78.2407C204.171 77.3404 203.487 76.6106 202.643 76.6106H193.341C192.497 76.6106 191.813 77.3404 191.813 78.2407V78.2683C191.813 79.1686 192.497 79.8984 193.341 79.8984ZM193.341 73.2964H202.643C203.487 73.2964 204.171 72.5666 204.171 71.6663V71.6387C204.171 70.7383 203.487 70.0086 202.643 70.0086H193.341C192.497 70.0086 191.813 70.7383 191.813 71.6387V71.6663C191.813 72.5666 192.497 73.2964 193.341 73.2964Z" fill="url(#paint0_linear_8035_1472)"/>
<path d="M202.376 85.9464H201.916V83.7348H201.094V83.3047H203.198V83.7348H202.376V85.9464H202.376Z" fill="#A226F7"/>
<path d="M203.812 85.9434H203.363V83.9507H203.812V84.3998C203.934 84.1017 204.16 83.8979 204.504 83.9129V84.3962H204.479C204.086 84.3962 203.812 84.6565 203.812 85.1848V85.9434Z" fill="#A226F7"/>
<path d="M205.997 85.9447V85.6994C205.864 85.8618 205.66 85.9861 205.364 85.9861C204.993 85.9861 204.667 85.7709 204.667 85.3709V85.3631C204.667 84.9331 205.004 84.7215 205.46 84.7215C205.697 84.7215 205.849 84.7556 206.001 84.8047V84.7556C206.001 84.4799 205.831 84.3292 205.519 84.3292C205.301 84.3292 205.138 84.3783 204.96 84.4539L204.838 84.088C205.053 83.9897 205.264 83.9219 205.583 83.9219C206.161 83.9219 206.442 84.2313 206.442 84.7637V85.9451H205.997V85.9447ZM206.008 85.0992C205.893 85.0541 205.734 85.02 205.56 85.02C205.278 85.02 205.112 85.1369 205.112 85.3408V85.3485C205.112 85.5374 205.278 85.6429 205.49 85.6429C205.786 85.6429 206.008 85.4732 206.008 85.2238V85.0992Z" fill="#A226F7"/>
<path d="M208.255 83.9531H208.726L207.926 85.9609H207.522L206.718 83.9531H207.2L207.726 85.4175L208.255 83.9531Z" fill="#A226F7"/>
<path d="M209.9 85.6162C210.119 85.6162 210.275 85.5329 210.43 85.3786L210.693 85.6162C210.508 85.8428 210.252 85.9898 209.893 85.9898C209.326 85.9898 208.889 85.5707 208.889 84.9518C208.889 84.378 209.285 83.9102 209.845 83.9102C210.467 83.9102 210.783 84.4084 210.783 84.9859C210.783 85.0273 210.779 85.0651 210.775 85.1106H209.337C209.389 85.4351 209.612 85.6162 209.9 85.6162H209.9ZM210.337 84.8085C210.308 84.514 210.137 84.2838 209.841 84.2838C209.566 84.2838 209.374 84.499 209.333 84.8085H210.337Z" fill="#A226F7"/>
<path d="M211.26 85.9468V83.1914H211.708V85.9468H211.26Z" fill="#A226F7"/>
<path d="M212.265 85.9467V85.4297H212.757V85.9467H212.265Z" fill="#A226F7"/>
<path d="M216.377 83.7201H214.91V84.4073H216.211V84.8223H214.91V85.5318H216.396V85.9468H214.454V83.3047H216.377V83.7197V83.7201Z" fill="#A226F7"/>
<path d="M217.334 85.9443H216.886V83.9516H217.334V84.261C217.46 84.0722 217.641 83.9102 217.945 83.9102C218.387 83.9102 218.642 84.2119 218.642 84.6765V85.9447H218.194V84.8125C218.194 84.5031 218.042 84.3256 217.775 84.3256C217.508 84.3256 217.334 84.5104 217.334 84.8198V85.9447V85.9443Z" fill="#A226F7"/>
<path d="M220.054 86.5563C219.732 86.5563 219.432 86.4731 219.18 86.3188L219.346 85.9752C219.554 86.1072 219.776 86.1864 220.043 86.1864C220.443 86.1864 220.662 85.9752 220.662 85.5748V85.4201C220.499 85.6353 220.295 85.786 219.972 85.786C219.513 85.786 219.083 85.4424 219.083 84.8499C219.083 84.2574 219.516 83.9102 219.972 83.9102C220.302 83.9102 220.506 84.0649 220.658 84.2497V83.9516H221.106V85.5366C221.106 86.2424 220.728 86.5555 220.054 86.5555L220.054 86.5563ZM220.091 84.2955C219.78 84.2955 219.535 84.5144 219.535 84.8466C219.535 85.1788 219.783 85.4014 220.091 85.4014C220.399 85.4014 220.665 85.1788 220.665 84.8503C220.665 84.5218 220.402 84.2955 220.091 84.2955Z" fill="#A226F7"/>
<path d="M221.673 83.647V83.2129H222.155V83.647H221.673ZM221.691 85.9456V83.9528H222.139V85.9456H221.691Z" fill="#A226F7"/>
<path d="M223.174 85.9443H222.726V83.9516H223.174V84.261C223.3 84.0722 223.481 83.9102 223.785 83.9102C224.226 83.9102 224.482 84.2119 224.482 84.6765V85.9447H224.034V84.8125C224.034 84.5031 223.882 84.3256 223.615 84.3256C223.348 84.3256 223.174 84.5104 223.174 84.8198V85.9447V85.9443Z" fill="#A226F7"/>
<path d="M225.928 85.6162C226.147 85.6162 226.303 85.5329 226.458 85.3786L226.721 85.6162C226.536 85.8428 226.28 85.9898 225.921 85.9898C225.354 85.9898 224.917 85.5707 224.917 84.9518C224.917 84.378 225.313 83.9102 225.873 83.9102C226.496 83.9102 226.811 84.4084 226.811 84.9859C226.811 85.0273 226.807 85.0651 226.804 85.1106H225.366C225.417 85.4351 225.64 85.6162 225.929 85.6162H225.928ZM226.366 84.8085C226.336 84.514 226.165 84.2838 225.869 84.2838C225.595 84.2838 225.402 84.499 225.361 84.8085H226.366Z" fill="#A226F7"/>
<path d="M228.165 85.6162C228.383 85.6162 228.539 85.5329 228.695 85.3786L228.958 85.6162C228.772 85.8428 228.517 85.9898 228.158 85.9898C227.591 85.9898 227.153 85.5707 227.153 84.9518C227.153 84.378 227.55 83.9102 228.11 83.9102C228.732 83.9102 229.047 84.4084 229.047 84.9859C229.047 85.0273 229.044 85.0651 229.04 85.1106H227.602C227.654 85.4351 227.876 85.6162 228.165 85.6162H228.165ZM228.602 84.8085C228.572 84.514 228.402 84.2838 228.105 84.2838C227.831 84.2838 227.638 84.499 227.598 84.8085H228.602Z" fill="#A226F7"/>
<path d="M229.949 85.9434H229.501V83.9507H229.949V84.3998C230.071 84.1017 230.297 83.8979 230.642 83.9129V84.3962H230.616C230.224 84.3962 229.949 84.6565 229.949 85.1848V85.9434Z" fill="#A226F7"/>
<path d="M231.868 85.6162C232.086 85.6162 232.242 85.5329 232.398 85.3786L232.661 85.6162C232.476 85.8428 232.22 85.9898 231.861 85.9898C231.294 85.9898 230.856 85.5707 230.856 84.9518C230.856 84.378 231.253 83.9102 231.813 83.9102C232.435 83.9102 232.75 84.4084 232.75 84.9859C232.75 85.0273 232.747 85.0651 232.743 85.1106H231.305C231.357 85.4351 231.579 85.6162 231.868 85.6162H231.868ZM232.305 84.8085C232.275 84.514 232.105 84.2838 231.809 84.2838C231.534 84.2838 231.342 84.499 231.301 84.8085H232.305Z" fill="#A226F7"/>
<path d="M234.677 85.9468V85.6146C234.532 85.8221 234.328 85.9882 234.009 85.9882C233.55 85.9882 233.102 85.6146 233.102 84.9502C233.102 84.2859 233.543 83.9122 234.009 83.9122C234.332 83.9122 234.536 84.0783 234.677 84.2631V83.1914H235.125V85.9468H234.677ZM234.117 84.3086C233.809 84.3086 233.554 84.5502 233.554 84.9502C233.554 85.3503 233.813 85.5919 234.117 85.5919C234.421 85.5919 234.684 85.3389 234.684 84.9502C234.684 84.5616 234.417 84.3086 234.117 84.3086Z" fill="#A226F7"/>
<g clip-path="url(#clip0_8035_1472)">
<path d="M150.537 9.81843C149.784 10.5681 148.854 10.9446 147.753 10.9446C146.652 10.9446 145.723 10.5714 144.97 9.81843C144.214 9.06875 143.84 8.14705 143.84 7.05334C143.84 5.95964 144.218 5.03795 144.97 4.28827C145.723 3.53857 146.652 3.16211 147.753 3.16211C148.854 3.16211 149.784 3.53857 150.537 4.28827C151.289 5.03795 151.667 5.95964 151.667 7.05334C151.667 8.14705 151.289 9.06875 150.537 9.81843Z" fill="#0087FA"/>
<path d="M144.649 35.1196V12.1973C144.953 12.4537 146.038 13.3039 147.665 13.3332C149.397 13.3624 150.559 12.4408 150.849 12.1973V35.1163H144.649V35.1196Z" fill="#0087FA"/>
<path d="M119.272 10.5729H114.59V13.5943C112.555 10.9396 109.459 9.91406 106.133 9.91406C102.507 9.91406 99.4842 11.1441 97.0656 13.6041C94.6471 16.0641 93.4395 19.1148 93.4395 22.7593C93.4395 26.4039 94.6471 29.4546 97.0656 31.9146C99.4842 34.3747 102.507 35.6046 106.133 35.6046C106.226 35.6046 106.317 35.6014 106.411 35.5982C106.498 35.5982 106.582 35.6046 106.669 35.6046C108.144 35.6046 109.504 35.3451 110.754 34.8323C112.158 34.3227 113.627 33.2258 114.59 31.7232V35.0173H120.786V12.0983C120.786 11.2577 120.108 10.5729 119.268 10.5729M111.874 28.3641C110.395 29.8603 108.542 30.61 106.317 30.61C104.092 30.61 102.274 29.8636 100.802 28.3641C99.3292 26.8681 98.5963 25.0117 98.5963 22.795C98.5963 20.5785 99.3292 18.7221 100.802 17.2259C102.274 15.7299 104.111 14.9801 106.317 14.9801C108.522 14.9801 110.392 15.7299 111.874 17.2259C113.353 18.7221 114.092 20.5785 114.092 22.795C114.092 25.0117 113.353 26.8681 111.874 28.3641Z" fill="#0087FA"/>
<path d="M29.8637 10.0775C32.6149 10.0775 34.8171 10.905 36.4703 12.5602C38.1236 14.2153 38.9535 16.4254 38.9535 19.1905V35.119H32.7312V21.0631C32.7312 19.5638 32.3017 18.3663 31.4363 17.4673C30.5741 16.5682 29.4213 16.1204 27.9748 16.1204C26.4539 16.1204 25.2171 16.5813 24.2678 17.503C23.3185 18.4246 22.847 19.6416 22.847 21.1573V35.119H16.6473V21.0631C16.6473 19.58 16.2082 18.3856 15.3299 17.4803C14.4515 16.5748 13.2827 16.1204 11.8232 16.1204C10.3636 16.1204 9.08812 16.5845 8.13879 17.5159C7.19267 18.4441 6.718 19.6579 6.718 21.1573V35.119H0.521484V10.6616H6.72123V13.1897C8.55533 11.1127 10.9577 10.0742 13.9252 10.0742C15.6205 10.0742 17.1219 10.4215 18.4362 11.116C19.7504 11.8105 20.7934 12.7906 21.5715 14.0564C23.5769 11.4016 26.3408 10.0742 29.8702 10.0742" fill="#0087FA"/>
<path d="M55.4546 35.7016C52.0188 35.7016 49.271 34.7605 47.2044 32.8782C45.1378 30.9958 44.1045 28.4936 44.1045 25.3716V12.1855C44.1045 11.3449 44.7827 10.6602 45.6222 10.6602H50.3043V24.5051C50.3043 26.066 50.7725 27.3156 51.7153 28.2534C52.655 29.1914 53.9014 29.6588 55.4546 29.6588C57.0078 29.6588 58.2541 29.1914 59.1939 28.2534C60.1335 27.3156 60.6049 26.066 60.6049 24.5051V10.6602H66.8047V25.3716C66.8047 28.4806 65.7682 30.9797 63.6951 32.8684C61.6221 34.7573 58.8741 35.7016 55.4546 35.7016Z" fill="#0087FA"/>
<path d="M80.7427 35.7037C76.7969 35.7037 73.3773 34.4543 70.4873 31.9554L73.4935 27.8337C75.5601 29.6446 77.9303 30.5501 80.6006 30.5501C81.8729 30.5501 82.9095 30.3489 83.7134 29.9399C84.5143 29.5342 84.9147 28.9728 84.9147 28.2523C84.9147 27.8629 84.8016 27.5189 84.5757 27.2203C84.3496 26.925 83.988 26.6653 83.4907 26.4479C82.9934 26.2304 82.5155 26.0487 82.0569 25.9092C81.5984 25.7696 80.9591 25.6041 80.1357 25.4159C79.577 25.2893 79.1314 25.1887 78.8053 25.1108C78.4791 25.0329 78.0336 24.9128 77.4652 24.7473C76.897 24.5818 76.4384 24.4293 76.0897 24.2897C75.741 24.1501 75.3245 23.9587 74.8432 23.7152C74.3621 23.4718 73.9682 23.2253 73.6647 22.9786C73.3611 22.7286 73.0447 22.4236 72.7089 22.0633C72.373 21.7031 72.1115 21.3234 71.9145 20.9144C71.7209 20.5088 71.5626 20.0415 71.4366 19.5092C71.3139 18.9803 71.2494 18.409 71.2494 17.799C71.2494 16.1275 71.7079 14.6995 72.625 13.5118C73.542 12.3239 74.7335 11.4541 76.2027 10.8992C77.6687 10.3442 79.3284 10.0684 81.1786 10.0684C84.7661 10.0684 87.9144 11.1393 90.6172 13.278L87.6109 17.4483C85.6219 15.949 83.523 15.1993 81.3175 15.1993C80.197 15.1993 79.2832 15.3778 78.5663 15.7381C77.8528 16.0983 77.4943 16.6208 77.4943 17.3089C77.4943 17.6983 77.6041 18.039 77.8205 18.3279C78.0368 18.6167 78.3953 18.8666 78.8925 19.0775C79.3898 19.2886 79.8709 19.4605 80.3391 19.5937C80.8041 19.7267 81.4499 19.8792 82.2733 20.0512C82.987 20.207 83.565 20.3401 83.9976 20.4504C84.4303 20.5607 84.9986 20.7328 85.6993 20.9664C86.3968 21.2 86.9683 21.4338 87.4107 21.6706C87.8531 21.9044 88.3342 22.2192 88.8573 22.6183C89.3772 23.0176 89.784 23.4426 90.0811 23.8938C90.3749 24.3481 90.6301 24.8999 90.8399 25.5555C91.0498 26.211 91.1532 26.9217 91.1532 27.6876C91.1532 29.359 90.6882 30.8097 89.7549 32.043C88.8218 33.2762 87.5786 34.1946 86.0255 34.795C84.4723 35.3955 82.7092 35.6973 80.7363 35.6973" fill="#0087FA"/>
<path d="M128.033 8.4348C128.033 5.81252 128.72 3.74844 130.096 2.24906C131.471 0.749687 133.518 0 136.238 0C137.962 0 139.492 0.350503 140.829 1.05476V6.51351C139.88 5.98452 138.818 5.7184 137.636 5.7184C136.531 5.7184 135.689 5.98128 135.107 6.50378C134.526 7.02629 134.232 7.80519 134.232 8.83399V10.6611H140.361V16.3536H134.232V35.1184H128.033V16.3536H124.209V10.6611H128.033V8.4348Z" fill="#0087FA"/>
<path d="M169.984 10.6185H171.033V16.7069H169.984C167.778 16.7069 166.058 17.317 164.821 18.534C163.584 19.751 162.967 21.4061 162.967 23.4995V35.118H156.768V10.6607H162.967V13.8217C164.833 11.4493 167.171 10.6152 169.984 10.6152" fill="#0087FA"/>
<path d="M39.8738 16.0442C39.7705 15.3368 39.3765 13.3117 37.6586 11.5461C35.76 9.59567 33.4899 9.23543 32.8184 9.1543H39.8706V16.0442H39.8738Z" fill="#FFBF00"/>
<path d="M174.061 35.3417C173.263 35.3417 172.592 35.0723 172.049 34.5304C171.507 33.9916 171.235 33.3133 171.235 32.4987C171.235 31.6841 171.507 31.0286 172.049 30.4931C172.592 29.9576 173.263 29.6914 174.061 29.6914C174.858 29.6914 175.563 29.9608 176.111 30.4931C176.66 31.0286 176.932 31.6971 176.932 32.4987C176.932 33.3003 176.657 33.9883 176.111 34.5304C175.563 35.0691 174.881 35.3417 174.061 35.3417Z" fill="#FFBF00"/>
<path d="M262.348 10.0709C265.097 10.0709 267.299 10.8985 268.952 12.5536C270.606 14.2089 271.432 16.4157 271.432 19.1808V35.1028H265.213V21.0533C265.213 19.554 264.78 18.3565 263.922 17.4575C263.059 16.5584 261.907 16.1107 260.46 16.1107C258.939 16.1107 257.703 16.5715 256.757 17.4932C255.81 18.4149 255.335 19.6319 255.335 21.1475V35.1028H249.138V21.0533C249.138 19.5703 248.699 18.376 247.822 17.4705C246.943 16.565 245.774 16.1139 244.315 16.1139C242.855 16.1139 241.583 16.5779 240.634 17.5061C239.688 18.4344 239.213 19.6481 239.213 21.1475V35.1028H233.016V10.6551H239.213V13.1833C241.043 11.1062 243.446 10.0677 246.41 10.0677C248.102 10.0677 249.607 10.415 250.917 11.1095C252.232 11.804 253.275 12.7841 254.053 14.0466C256.055 11.3918 258.822 10.0645 262.348 10.0645" fill="#FFBF00"/>
<path d="M226.025 13.7493C223.523 11.299 220.413 10.0723 216.699 10.0723C212.986 10.0723 209.874 11.299 207.364 13.7493C204.852 16.2028 203.599 19.247 203.599 22.8884C203.599 26.5296 204.855 29.5739 207.364 32.0274C209.874 34.4809 212.986 35.7044 216.699 35.7044C220.413 35.7044 223.523 34.4777 226.025 32.0274C228.528 29.5739 229.777 26.5296 229.777 22.8884C229.777 19.247 228.524 16.2028 226.025 13.7493ZM216.679 30.7065C212.405 30.7065 208.937 27.221 208.937 22.9241C208.937 18.6271 212.405 15.1415 216.679 15.1415C220.955 15.1415 224.423 18.6239 224.423 22.9241C224.423 27.2242 220.959 30.7065 216.679 30.7065Z" fill="#FFBF00"/>
<path d="M191.536 30.6708C187.26 30.6708 183.792 27.1852 183.792 22.8884C183.792 18.5915 187.26 15.1059 191.536 15.1059C194.374 15.1059 196.851 16.6474 198.198 18.9386L202.804 16.1639C201.685 14.288 200.144 12.8049 198.178 11.7112C196.211 10.6175 194.015 10.0723 191.59 10.0723C187.877 10.0723 184.764 11.299 182.255 13.7493C179.747 16.2028 178.49 19.247 178.49 22.8884C178.49 26.5296 179.747 29.5739 182.255 32.0274C184.764 34.4809 187.877 35.7076 191.59 35.7076C194.015 35.7076 196.211 35.1592 198.178 34.0688C200.144 32.9751 201.685 31.4822 202.804 29.5933L198.207 26.825C196.86 29.126 194.381 30.674 191.532 30.674" fill="#FFBF00"/>
</g>
<defs>
<linearGradient id="paint0_linear_8035_1472" x1="192.03" y1="64.0551" x2="204.875" y2="78.3986" gradientUnits="userSpaceOnUse">
<stop stop-color="#4A81FD"/>
<stop offset="0.31" stop-color="#6860FA"/>
<stop offset="0.77" stop-color="#9236F8"/>
<stop offset="1" stop-color="#A226F7"/>
</linearGradient>
<clipPath id="clip0_8035_1472">
<rect width="271.591" height="36.7014" fill="white"/>
</clipPath>
</defs>
</svg>
