<svg width="1440" height="82" viewBox="0 0 1440 82" fill="none" xmlns="http://www.w3.org/2000/svg">
<g clip-path="url(#clip0_8035_610)">
<path d="M281.435 35.1864C280.927 35.6971 280.3 35.9535 279.558 35.9535C278.816 35.9535 278.191 35.6993 277.683 35.1864C277.174 34.6758 276.922 34.0479 276.922 33.3029C276.922 32.5579 277.176 31.9301 277.683 31.4195C278.191 30.9088 278.816 30.6523 279.558 30.6523C280.3 30.6523 280.927 30.9088 281.435 31.4195C281.941 31.9301 282.196 32.5579 282.196 33.3029C282.196 34.0479 281.941 34.6758 281.435 35.1864Z" fill="#0087FA"/>
<path d="M277.465 52.4227V36.8086C277.669 36.9833 278.401 37.5624 279.497 37.5823C280.663 37.6023 281.447 36.9745 281.642 36.8086V52.4204H277.465V52.4227Z" fill="#0087FA"/>
<path d="M260.367 35.6988H257.212V37.7569C255.841 35.9486 253.755 35.25 251.514 35.25C249.07 35.25 247.034 36.0878 245.404 37.7635C243.775 39.4392 242.961 41.5173 242.961 43.9999C242.961 46.4824 243.775 48.5605 245.404 50.2362C247.034 51.9119 249.07 52.7497 251.514 52.7497C251.577 52.7497 251.638 52.7475 251.701 52.7453C251.76 52.7453 251.816 52.7497 251.875 52.7497C252.869 52.7497 253.785 52.5729 254.627 52.2236C255.574 51.8765 256.564 51.1293 257.212 50.1058V52.3496H261.387V36.7378C261.387 36.1652 260.93 35.6988 260.365 35.6988M255.382 47.8177C254.386 48.8368 253.137 49.3475 251.638 49.3475C250.139 49.3475 248.914 48.8391 247.922 47.8177C246.93 46.7986 246.436 45.5341 246.436 44.0241C246.436 42.5143 246.93 41.2498 247.922 40.2306C248.914 39.2116 250.152 38.7009 251.638 38.7009C253.124 38.7009 254.384 39.2116 255.382 40.2306C256.379 41.2498 256.877 42.5143 256.877 44.0241C256.877 45.5341 256.379 46.7986 255.382 47.8177Z" fill="#0087FA"/>
<path d="M200.123 35.3655C201.976 35.3655 203.46 35.9292 204.574 37.0567C205.688 38.1841 206.247 39.6896 206.247 41.5731V52.4231H202.055V42.8486C202.055 41.8273 201.765 41.0116 201.182 40.3992C200.601 39.7868 199.825 39.4817 198.85 39.4817C197.825 39.4817 196.992 39.7957 196.352 40.4235C195.712 41.0514 195.395 41.8803 195.395 42.9128V52.4231H191.217V42.8486C191.217 41.8384 190.921 41.0248 190.33 40.4081C189.738 39.7913 188.95 39.4817 187.967 39.4817C186.983 39.4817 186.124 39.7979 185.484 40.4324C184.847 41.0646 184.527 41.8914 184.527 42.9128V52.4231H180.352V35.7634H184.529V37.4855C185.765 36.0707 187.384 35.3633 189.383 35.3633C190.525 35.3633 191.537 35.5998 192.423 36.0729C193.308 36.546 194.011 37.2136 194.535 38.0758C195.886 36.2674 197.749 35.3633 200.127 35.3633" fill="#0087FA"/>
<path d="M217.367 52.8193C215.052 52.8193 213.2 52.1782 211.807 50.896C210.415 49.6138 209.719 47.9094 209.719 45.7827V36.8008C209.719 36.2282 210.176 35.7617 210.741 35.7617H213.896V45.1925C213.896 46.2558 214.212 47.1069 214.847 47.7458C215.48 48.3847 216.32 48.703 217.367 48.703C218.413 48.703 219.253 48.3847 219.886 47.7458C220.519 47.1069 220.837 46.2558 220.837 45.1925V35.7617H225.014V45.7827C225.014 47.9005 224.316 49.6028 222.919 50.8894C221.522 52.176 219.671 52.8193 217.367 52.8193Z" fill="#0087FA"/>
<path d="M234.406 52.8215C231.748 52.8215 229.443 51.9704 227.496 50.2682L229.522 47.4606C230.914 48.6941 232.511 49.3109 234.311 49.3109C235.168 49.3109 235.866 49.1739 236.408 48.8953C236.948 48.619 237.217 48.2366 237.217 47.7458C237.217 47.4806 237.141 47.2462 236.989 47.0428C236.837 46.8416 236.593 46.6648 236.258 46.5166C235.923 46.3685 235.601 46.2448 235.292 46.1497C234.983 46.0546 234.552 45.9419 233.997 45.8137C233.621 45.7274 233.321 45.6589 233.101 45.6059C232.881 45.5528 232.581 45.471 232.198 45.3583C231.815 45.2456 231.506 45.1416 231.271 45.0466C231.036 44.9515 230.755 44.8211 230.431 44.6552C230.107 44.4895 229.842 44.3215 229.637 44.1534C229.433 43.9832 229.219 43.7754 228.993 43.53C228.767 43.2846 228.59 43.026 228.458 42.7474C228.327 42.4711 228.221 42.1528 228.136 41.7902C228.053 41.4299 228.01 41.0408 228.01 40.6252C228.01 39.4867 228.319 38.514 228.936 37.7049C229.554 36.8958 230.357 36.3033 231.347 35.9253C232.335 35.5473 233.453 35.3594 234.7 35.3594C237.117 35.3594 239.239 36.0889 241.06 37.5457L239.034 40.3864C237.694 39.3651 236.28 38.8545 234.794 38.8545C234.039 38.8545 233.423 38.976 232.94 39.2214C232.459 39.4668 232.217 39.8227 232.217 40.2914C232.217 40.5566 232.291 40.7888 232.437 40.9856C232.583 41.1823 232.825 41.3525 233.16 41.4962C233.495 41.6399 233.819 41.757 234.134 41.8477C234.448 41.9384 234.883 42.0423 235.438 42.1594C235.918 42.2656 236.308 42.3562 236.599 42.4313C236.891 42.5065 237.274 42.6237 237.746 42.7828C238.216 42.942 238.601 43.1012 238.899 43.2625C239.197 43.4217 239.521 43.6362 239.874 43.9081C240.224 44.18 240.498 44.4695 240.699 44.7769C240.897 45.0863 241.068 45.4622 241.21 45.9088C241.351 46.3553 241.421 46.8394 241.421 47.3611C241.421 48.4996 241.108 49.4878 240.479 50.3279C239.85 51.1679 239.012 51.7935 237.966 52.2025C236.919 52.6115 235.731 52.8171 234.402 52.8171" fill="#0087FA"/>
<path d="M266.272 34.2456C266.272 32.4593 266.735 31.0533 267.662 30.032C268.589 29.0107 269.968 28.5 271.8 28.5C272.962 28.5 273.993 28.7388 274.894 29.2185V32.9368C274.255 32.5765 273.539 32.3952 272.742 32.3952C271.998 32.3952 271.431 32.5743 271.038 32.9302C270.647 33.2861 270.449 33.8167 270.449 34.5175V35.7621H274.578V39.6396H270.449V52.4217H266.272V39.6396H263.695V35.7621H266.272V34.2456Z" fill="#0087FA"/>
<path d="M294.538 35.7327H295.245V39.8799H294.538C293.052 39.8799 291.892 40.2955 291.059 41.1245C290.226 41.9535 289.81 43.0809 289.81 44.5069V52.4211H285.633V35.7614H289.81V37.9146C291.067 36.2986 292.643 35.7305 294.538 35.7305" fill="#0087FA"/>
<path d="M206.867 39.4276C206.798 38.9457 206.532 37.5663 205.375 36.3636C204.095 35.035 202.566 34.7896 202.113 34.7344H206.865V39.4276H206.867Z" fill="#FFBF00"/>
<path d="M297.283 52.5715C296.745 52.5715 296.293 52.388 295.927 52.0188C295.562 51.6518 295.379 51.1898 295.379 50.6349C295.379 50.08 295.562 49.6335 295.927 49.2687C296.293 48.904 296.745 48.7227 297.283 48.7227C297.82 48.7227 298.295 48.9062 298.664 49.2687C299.034 49.6335 299.217 50.0889 299.217 50.6349C299.217 51.1809 299.032 51.6496 298.664 52.0188C298.295 52.3858 297.836 52.5715 297.283 52.5715Z" fill="#FFBF00"/>
<path d="M356.772 35.3599C358.624 35.3599 360.107 35.9236 361.221 37.051C362.336 38.1785 362.892 39.6817 362.892 41.5652V52.4109H358.702V42.8408C358.702 41.8195 358.41 41.0038 357.832 40.3914C357.251 39.779 356.474 39.474 355.499 39.474C354.474 39.474 353.642 39.7879 353.004 40.4157C352.366 41.0435 352.046 41.8725 352.046 42.9049V52.4109H347.871V42.8408C347.871 41.8306 347.575 41.017 346.984 40.4002C346.392 39.7835 345.604 39.4762 344.621 39.4762C343.637 39.4762 342.78 39.7923 342.14 40.4245C341.503 41.0568 341.183 41.8836 341.183 42.9049V52.4109H337.008V35.7578H341.183V37.4799C342.416 36.0651 344.036 35.3577 346.032 35.3577C347.173 35.3577 348.187 35.5942 349.07 36.0673C349.955 36.5404 350.658 37.208 351.183 38.068C352.531 36.2596 354.396 35.3555 356.772 35.3555" fill="#FFBF00"/>
<path d="M332.299 37.8641C330.613 36.195 328.517 35.3594 326.015 35.3594C323.513 35.3594 321.416 36.195 319.725 37.8641C318.032 39.5353 317.188 41.609 317.188 44.0894C317.188 46.5697 318.034 48.6434 319.725 50.3146C321.416 51.9859 323.513 52.8193 326.015 52.8193C328.517 52.8193 330.613 51.9837 332.299 50.3146C333.985 48.6434 334.827 46.5697 334.827 44.0894C334.827 41.609 333.983 39.5353 332.299 37.8641ZM326.001 49.4148C323.121 49.4148 320.784 47.0406 320.784 44.1137C320.784 41.1867 323.121 38.8124 326.001 38.8124C328.883 38.8124 331.219 41.1845 331.219 44.1137C331.219 47.0428 328.885 49.4148 326.001 49.4148Z" fill="#FFBF00"/>
<path d="M309.056 49.3905C306.175 49.3905 303.838 47.0162 303.838 44.0894C303.838 41.1624 306.175 38.7881 309.056 38.7881C310.968 38.7881 312.637 39.8382 313.545 41.3989L316.649 39.5088C315.894 38.231 314.856 37.2208 313.532 36.4758C312.206 35.7308 310.727 35.3594 309.093 35.3594C306.591 35.3594 304.493 36.195 302.802 37.8641C301.112 39.5353 300.266 41.609 300.266 44.0894C300.266 46.5697 301.112 48.6434 302.802 50.3146C304.493 51.9859 306.591 52.8215 309.093 52.8215C310.727 52.8215 312.206 52.4479 313.532 51.7052C314.856 50.9602 315.894 49.9432 316.649 48.6566L313.551 46.7709C312.643 48.3383 310.973 49.3927 309.053 49.3927" fill="#FFBF00"/>
</g>
<rect x="1214" y="18" width="46" height="46" rx="23" fill="white"/>
<g clip-path="url(#clip1_8035_610)">
<path d="M1242 42.666V49.3327M1238.67 45.9993H1245.33M1235.33 35.9993C1235.33 37.8403 1233.84 39.3327 1232 39.3327C1230.16 39.3327 1228.67 37.8403 1228.67 35.9993C1228.67 34.1584 1230.16 32.666 1232 32.666C1233.84 32.666 1235.33 34.1584 1235.33 35.9993ZM1235.33 45.9993C1235.33 47.8403 1233.84 49.3327 1232 49.3327C1230.16 49.3327 1228.67 47.8403 1228.67 45.9993C1228.67 44.1584 1230.16 42.666 1232 42.666C1233.84 42.666 1235.33 44.1584 1235.33 45.9993ZM1245.33 35.9993C1245.33 37.8403 1243.84 39.3327 1242 39.3327C1240.16 39.3327 1238.67 37.8403 1238.67 35.9993C1238.67 34.1584 1240.16 32.666 1242 32.666C1243.84 32.666 1245.33 34.1584 1245.33 35.9993Z" stroke="#0087FA" stroke-width="1.5"/>
</g>
<circle cx="1249" cy="22" r="4" fill="#0087FA"/>
<defs>
<clipPath id="clip0_8035_610">
<rect width="183" height="25" fill="white" transform="translate(180 28.5)"/>
</clipPath>
<clipPath id="clip1_8035_610">
<rect width="20" height="20" fill="white" transform="translate(1227 31)"/>
</clipPath>
</defs>
</svg>
