<svg width="40" height="40" viewBox="0 0 40 40" fill="none" xmlns="http://www.w3.org/2000/svg">
<rect width="40" height="40" rx="20" fill="#EBF2FF"/>
<path d="M18.3813 12.5656C19.1726 12.126 19.5682 11.9062 20.0001 11.9063C20.432 11.9063 20.8276 12.1261 21.6189 12.5657L25.7855 14.8805C26.6215 15.3449 27.0396 15.5772 27.2698 15.9684C27.5 16.3597 27.5 16.8379 27.5 17.7943V22.205C27.5 23.1614 27.5 23.6396 27.2698 24.0309C27.0396 24.4221 26.6215 24.6544 25.7855 25.1188L21.6189 27.4336C20.8276 27.8732 20.432 28.0931 20.0001 28.0931C19.5682 28.0931 19.1726 27.8733 18.3813 27.4337L14.2145 25.1188C13.3785 24.6543 12.9604 24.4221 12.7302 24.0309C12.5 23.6396 12.5 23.1614 12.5 22.205V17.7943C12.5 16.8379 12.5 16.3597 12.7302 15.9684C12.9604 15.5772 13.3785 15.345 14.2145 14.8805L18.3813 12.5656Z" fill="#CCE4FF"/>
<path d="M14.2145 14.8805L14.5059 15.405L14.2145 14.8805ZM14.2145 25.1188L14.5059 24.5943H14.5059L14.2145 25.1188ZM21.6189 27.4336L21.9103 27.9581L21.6189 27.4336ZM18.3813 27.4337L18.0899 27.9581L18.3813 27.4337ZM25.7855 25.1188L25.4941 24.5943L25.7855 25.1188ZM25.7855 14.8805L26.0769 14.356L25.7855 14.8805ZM21.6189 12.5657L21.9103 12.0412L21.6189 12.5657ZM18.3813 12.5656L18.0899 12.0412L18.3813 12.5656ZM18.5774 21.4937L19.0017 21.0695L18.5774 21.4937ZM19.7559 21.4937L20.1802 21.918L19.7559 21.4937ZM21.6189 12.5657L21.3275 13.0902L25.4941 15.405L25.7855 14.8805L26.0769 14.356L21.9103 12.0412L21.6189 12.5657ZM27.5 17.7943H26.9V22.205H27.5H28.1V17.7943H27.5ZM25.7855 25.1188L25.4941 24.5943L21.3275 26.9091L21.6189 27.4336L21.9103 27.9581L26.0769 25.6433L25.7855 25.1188ZM18.3813 27.4337L18.6727 26.9092L14.5059 24.5943L14.2145 25.1188L13.9232 25.6433L18.0899 27.9581L18.3813 27.4337ZM12.5 22.205H13.1V17.7943H12.5H11.9V22.205H12.5ZM14.2145 14.8805L14.5059 15.405L18.6727 13.0901L18.3813 12.5656L18.0899 12.0412L13.9232 14.356L14.2145 14.8805ZM12.5 17.7943H13.1C13.1 17.3043 13.1007 16.9805 13.1258 16.7291C13.1496 16.4911 13.1916 16.3674 13.2473 16.2727L12.7302 15.9684L12.2131 15.6642C12.0386 15.9607 11.9655 16.2718 11.9317 16.6098C11.8993 16.9345 11.9 17.328 11.9 17.7943H12.5ZM14.2145 14.8805L13.9232 14.356C13.5155 14.5825 13.1712 14.773 12.9031 14.959C12.624 15.1527 12.3876 15.3676 12.2131 15.6642L12.7302 15.9684L13.2473 16.2727C13.3031 16.178 13.3907 16.0812 13.5873 15.9448C13.7948 15.8008 14.0775 15.643 14.5059 15.405L14.2145 14.8805ZM14.2145 25.1188L14.5059 24.5943C14.0775 24.3563 13.7948 24.1985 13.5873 24.0545C13.3907 23.9181 13.3031 23.8213 13.2473 23.7266L12.7302 24.0309L12.2131 24.3351C12.3876 24.6317 12.624 24.8466 12.9031 25.0403C13.1712 25.2263 13.5155 25.4168 13.9232 25.6433L14.2145 25.1188ZM12.5 22.205H11.9C11.9 22.6713 11.8993 23.0648 11.9317 23.3895C11.9655 23.7275 12.0386 24.0386 12.2131 24.3351L12.7302 24.0309L13.2473 23.7266C13.1916 23.6319 13.1496 23.5082 13.1258 23.2702C13.1007 23.0188 13.1 22.695 13.1 22.205H12.5ZM21.6189 27.4336L21.3275 26.9091C20.922 27.1344 20.6541 27.2825 20.4347 27.3783C20.227 27.4689 20.1048 27.4931 20.0001 27.4931L20.0001 28.0931L20.0001 28.6931C20.3272 28.6931 20.6188 28.6073 20.9147 28.4781C21.1989 28.3541 21.5245 28.1724 21.9103 27.9581L21.6189 27.4336ZM18.3813 27.4337L18.0899 27.9581C18.4756 28.1725 18.8013 28.3541 19.0855 28.4781C19.3814 28.6073 19.6729 28.6931 20.0001 28.6931L20.0001 28.0931L20.0001 27.4931C19.8954 27.4931 19.7731 27.4689 19.5655 27.3783C19.346 27.2825 19.0782 27.1344 18.6727 26.9092L18.3813 27.4337ZM27.5 22.205H26.9C26.9 22.695 26.8993 23.0189 26.8742 23.2702C26.8504 23.5082 26.8084 23.6319 26.7527 23.7266L27.2698 24.0309L27.7869 24.3351C27.9614 24.0386 28.0345 23.7275 28.0682 23.3895C28.1007 23.0648 28.1 22.6713 28.1 22.205H27.5ZM25.7855 25.1188L26.0769 25.6433C26.4845 25.4168 26.8289 25.2263 27.0969 25.0403C27.376 24.8466 27.6124 24.6317 27.7869 24.3351L27.2698 24.0309L26.7527 23.7266C26.697 23.8213 26.6093 23.9181 26.4127 24.0545C26.2052 24.1985 25.9225 24.3563 25.4941 24.5943L25.7855 25.1188ZM25.7855 14.8805L25.4941 15.405C25.9225 15.643 26.2052 15.8008 26.4127 15.9448C26.6093 16.0812 26.697 16.178 26.7527 16.2727L27.2698 15.9684L27.7869 15.6642C27.6124 15.3676 27.376 15.1527 27.0969 14.959C26.8289 14.773 26.4845 14.5825 26.0769 14.356L25.7855 14.8805ZM27.5 17.7943H28.1C28.1 17.328 28.1007 16.9345 28.0682 16.6098C28.0345 16.2718 27.9614 15.9607 27.7869 15.6642L27.2698 15.9684L26.7527 16.2727C26.8084 16.3674 26.8504 16.4911 26.8742 16.7291C26.8993 16.9804 26.9 17.3043 26.9 17.7943H27.5ZM21.6189 12.5657L21.9103 12.0412C21.5245 11.8269 21.1989 11.6452 20.9147 11.5212C20.6188 11.392 20.3272 11.3063 20.0001 11.3062L20.0001 11.9063L20.0001 12.5063C20.1048 12.5063 20.227 12.5304 20.4347 12.621C20.6541 12.7168 20.922 12.8649 21.3275 13.0902L21.6189 12.5657ZM18.3813 12.5656L18.6727 13.0901C19.0782 12.8649 19.346 12.7168 19.5655 12.621C19.7731 12.5304 19.8954 12.5062 20.0001 12.5063L20.0001 11.9063L20.0001 11.3062C19.6729 11.3062 19.3814 11.392 19.0855 11.5212C18.8013 11.6452 18.4756 11.8268 18.0899 12.0412L18.3813 12.5656ZM17.0833 19.9997L16.6591 20.4239L18.1531 21.918L18.5774 21.4937L19.0017 21.0695L17.5076 19.5754L17.0833 19.9997ZM19.7559 21.4937L20.1802 21.918L23.7576 18.3406L23.3333 17.9163L22.9091 17.4921L19.3317 21.0695L19.7559 21.4937ZM18.5774 21.4937L18.1531 21.918C18.7129 22.4777 19.6204 22.4777 20.1802 21.918L19.7559 21.4937L19.3317 21.0695C19.2405 21.1606 19.0928 21.1606 19.0017 21.0695L18.5774 21.4937Z" fill="#0087FA"/>
</svg>
