<svg width="16" height="16" viewBox="0 0 16 16" fill="none" xmlns="http://www.w3.org/2000/svg">
<path d="M12.6137 11.5531C12.3208 11.2602 11.8459 11.2602 11.5531 11.5531C11.2602 11.846 11.2602 12.3208 11.553 12.6137L12.0834 12.0834L12.6137 11.5531ZM14.2196 15.2804C14.5125 15.5732 14.9874 15.5733 15.2803 15.2804C15.5732 14.9875 15.5732 14.5126 15.2803 14.2197L14.75 14.75L14.2196 15.2804ZM12.0834 12.0834L11.553 12.6137L14.2196 15.2804L14.75 14.75L15.2803 14.2197L12.6137 11.5531L12.0834 12.0834ZM6.75 12.75V12C3.85051 12 1.5 9.6495 1.5 6.75H0.75H0C0 10.4779 3.02208 13.5 6.75 13.5V12.75ZM12.75 6.75H12C12 9.6495 9.6495 12 6.75 12V12.75V13.5C10.4779 13.5 13.5 10.4779 13.5 6.75H12.75ZM6.75 0.75V1.5C9.6495 1.5 12 3.85051 12 6.75H12.75H13.5C13.5 3.02208 10.4779 0 6.75 0V0.75ZM6.75 0.75V0C3.02208 0 0 3.02208 0 6.75H0.75H1.5C1.5 3.85051 3.85051 1.5 6.75 1.5V0.75Z" fill="#0087FA"/>
</svg>
